<?xml version="1.0" standalone="no"?>
<!DOCTYPE svg PUBLIC "-//W3C//DTD SVG 20010904//EN"
 "http://www.w3.org/TR/2001/REC-SVG-20010904/DTD/svg10.dtd">
<svg version="1.0" xmlns="http://www.w3.org/2000/svg"
 width="1418.000000pt" height="1418.000000pt" viewBox="0 0 1418.000000 1418.000000"
 preserveAspectRatio="xMidYMid meet">
<metadata>
Created by potrace 1.11, written by Peter Selinger 2001-2013
</metadata>
<g transform="translate(0.000000,1418.000000) scale(0.100000,-0.100000)"
fill="#000000" stroke="none">
<path d="M8237 13749 c-448 -52 -865 -288 -1140 -646 -404 -526 -454 -1258
-125 -1836 193 -338 508 -607 868 -740 897 -332 1882 148 2173 1058 57 181 72
283 72 505 0 222 -14 323 -72 505 -240 755 -993 1245 -1776 1154z"/>
<path d="M6855 10434 c-11 -2 -731 -5 -1600 -7 -1773 -3 -1615 4 -1784 -78
-154 -76 -141 -59 -911 -1214 -381 -572 -706 -1067 -721 -1100 -45 -95 -60
-169 -60 -285 0 -161 40 -281 135 -407 46 -61 156 -152 239 -199 132 -73 380
-71 552 5 67 29 152 89 207 144 31 31 274 386 630 921 319 479 581 872 582
872 2 2 1498 -195 1507 -198 4 -2 -781 -1699 -1745 -3773 -964 -2073 -1761
-3792 -1770 -3820 -27 -76 -32 -226 -11 -319 24 -112 91 -239 170 -324 142
-153 309 -225 525 -225 137 -1 209 16 323 75 95 50 188 138 237 226 19 35 106
163 194 285 87 122 322 449 520 727 509 711 838 1172 1165 1635 l283 400 1622
501 c1117 345 1643 512 1687 535 76 40 190 152 237 231 128 215 117 481 -29
705 -53 81 -158 179 -234 220 -33 17 -379 174 -770 348 -390 174 -711 318
-713 320 -2 2 130 257 293 567 330 625 364 688 373 688 3 0 411 -166 906 -369
496 -203 942 -382 991 -398 77 -24 106 -28 205 -28 142 0 223 23 343 99 94 59
2103 1729 2160 1796 87 101 142 240 153 384 16 202 -82 437 -232 560 -75 62
-219 132 -309 151 -90 19 -223 19 -304 0 -132 -31 -158 -51 -1056 -806 l-856
-720 -724 397 c-553 302 -725 401 -725 415 0 30 -51 180 -82 244 -70 140 -197
278 -325 354 -116 68 -900 419 -987 441 -76 19 -248 34 -291 24z"/>
</g>
</svg>
